<svg xmlns="http://www.w3.org/2000/svg" xmlns:xlink="http://www.w3.org/1999/xlink" width="1024" zoomAndPan="magnify" viewBox="0 0 768 767.999994" height="1024" preserveAspectRatio="xMidYMid meet" version="1.0"><rect x="-76.8" width="921.6" fill="#ffffff" y="-76.799999" height="921.599993" fill-opacity="1"/><rect x="-76.8" width="921.6" fill="#f4f5f7" y="-76.799999" height="921.599993" fill-opacity="1"/><path fill="#f4f5f7" d="M 332.371094 198.328125 C 332.371094 198.328125 259.921875 199.28125 260.859375 264.910156 C 261.800781 330.542969 274.976562 388.574219 296.621094 420.917969 C 318.261719 453.257812 373.769531 537.917969 436.816406 529.363281 C 436.816406 529.363281 467.871094 522.699219 491.390625 507.476562 L 415.175781 447.546875 C 415.175781 447.546875 392.59375 461.816406 378.480469 442.792969 C 364.367188 423.765625 320.140625 335.304688 320.140625 335.304688 C 320.140625 335.304688 307.910156 306.765625 335.199219 294.402344 Z M 332.371094 198.328125 " fill-opacity="1" fill-rule="nonzero"/><path fill="#f4f5f7" d="M 340.84375 198.328125 C 340.84375 198.328125 346.492188 196.433594 356.835938 202.136719 C 367.183594 207.835938 367.1875 212.589844 367.1875 212.589844 L 368.128906 278.230469 C 368.128906 278.230469 365.304688 282.039062 361.542969 285.835938 C 357.78125 289.640625 345.546875 295.355469 343.664062 291.546875 C 341.785156 287.746094 340.84375 198.328125 340.84375 198.328125 Z M 340.84375 198.328125 " fill-opacity="1" fill-rule="nonzero"/><path fill="#f4f5f7" d="M 421.511719 440.535156 L 442.464844 429.472656 C 442.464844 429.472656 447.167969 428.527344 454.691406 433.277344 C 462.222656 438.042969 501.742188 469.4375 501.742188 469.4375 C 501.742188 469.4375 508.328125 475.140625 506.445312 481.800781 C 504.5625 488.460938 499.859375 502.730469 499.859375 502.730469 Z M 421.511719 440.535156 " fill-opacity="1" fill-rule="nonzero"/></svg>